<?xml version="1.0" encoding="utf-8"?>
<!-- Generator: Adobe Illustrator 25.0.0, SVG Export Plug-In . SVG Version: 6.00 Build 0)  -->
<svg version="1.1" id="Capa_1" xmlns="http://www.w3.org/2000/svg" xmlns:xlink="http://www.w3.org/1999/xlink" x="0px" y="0px"
	 viewBox="0 0 100 100" style="enable-background:new 0 0 100 100;" xml:space="preserve">
<style type="text/css">
	.st0{fill:#31383F;}
</style>
<path class="st0" d="M66.5,50l31-31c3.4-3.4,3.4-9,0-12.4l-4.1-4.1c-3.4-3.4-9-3.4-12.4,0l-31,31l-31-31c-3.4-3.4-8.9-3.4-12.4,0
	L2.5,6.6c-3.4,3.4-3.4,9,0,12.4l31,31l-31,30.9c-3.4,3.4-3.4,9,0,12.4l4.2,4.2c3.4,3.4,9,3.4,12.4,0l30.9-31l31,30.9
	c3.4,3.4,9,3.4,12.4,0l4.2-4.2c3.4-3.4,3.4-9,0-12.4L66.5,50z"/>
</svg>
