<?xml version="1.0" encoding="utf-8"?>
<!-- Generator: Adobe Illustrator 25.0.0, SVG Export Plug-In . SVG Version: 6.00 Build 0)  -->
<svg version="1.1" id="Capa_1" xmlns="http://www.w3.org/2000/svg" xmlns:xlink="http://www.w3.org/1999/xlink" x="0px" y="0px"
	 viewBox="0 0 100 100" style="enable-background:new 0 0 100 100;" xml:space="preserve">
<style type="text/css">
	.st0{fill:#31383F;}
</style>
<g>
	<path class="st0" d="M91.7,5.6H8.3C3.7,5.6,0,9.3,0,13.9v5.6c0,4.6,3.8,8.3,8.3,8.3h83.3c4.6,0,8.3-3.8,8.3-8.3v-5.6
		C100,9.3,96.2,5.6,91.7,5.6z"/>
	<path class="st0" d="M91.7,38.9H8.3c-4.6,0-8.3,3.7-8.3,8.3v5.6c0,4.6,3.8,8.3,8.3,8.3h83.3c4.6,0,8.3-3.8,8.3-8.3v-5.6
		C100,42.6,96.2,38.9,91.7,38.9z"/>
	<path class="st0" d="M91.7,72.2H8.3c-4.6,0-8.3,3.7-8.3,8.3V86c0,4.6,3.8,8.3,8.3,8.3h83.3c4.6,0,8.3-3.7,8.3-8.3v-5.5
		C100,75.9,96.2,72.2,91.7,72.2z"/>
</g>
</svg>
