<?xml version="1.0" encoding="utf-8"?>
<!-- Generator: Adobe Illustrator 24.3.0, SVG Export Plug-In . SVG Version: 6.00 Build 0)  -->
<svg version="1.1" id="Capa_1" focusable="false" xmlns="http://www.w3.org/2000/svg" xmlns:xlink="http://www.w3.org/1999/xlink"
	 x="0px" y="0px" viewBox="0 0 30 30" style="enable-background:new 0 0 30 30;" xml:space="preserve">
<style type="text/css">
	.st0{fill:#243647;}
</style>
<path class="st0" d="M26.3,4.4h-6.9c-1.4,0-2.6,1.2-2.6,2.6v6.9c0,1.4,1.2,2.6,2.6,2.6h4.3v3.4c0,1.9-1.5,3.4-3.4,3.4h-0.4
	c-0.7,0-1.3,0.6-1.3,1.3v2.6c0,0.7,0.6,1.3,1.3,1.3h0.4c4.8,0,8.6-3.9,8.6-8.6V7C28.9,5.6,27.7,4.4,26.3,4.4z M10.8,4.4H3.9
	C2.5,4.4,1.3,5.6,1.3,7v6.9c0,1.4,1.2,2.6,2.6,2.6h4.3v3.4c0,1.9-1.5,3.4-3.4,3.4H4.3C3.6,23.4,3,24,3,24.7v2.6
	c0,0.7,0.6,1.3,1.3,1.3h0.4c4.8,0,8.6-3.9,8.6-8.6V7C13.4,5.6,12.2,4.4,10.8,4.4z"/>
</svg>
