<?xml version="1.0" encoding="utf-8"?>
<!-- Generator: Adobe Illustrator 24.3.0, SVG Export Plug-In . SVG Version: 6.00 Build 0)  -->
<svg version="1.1" id="Capa_1" xmlns="http://www.w3.org/2000/svg" xmlns:xlink="http://www.w3.org/1999/xlink" x="0px" y="0px"
	 viewBox="0 0 30 30" style="enable-background:new 0 0 30 30;" xml:space="preserve">
<style type="text/css">
	.st0{fill:#FF7A36;}
	.st1{fill:#FFFFFF;}
</style>
<g>
	<path class="st0" d="M25.3,25.2L25.3,25.2c-5.7,5.7-14.8,5.7-20.5,0l0,0c-5.7-5.7-5.7-14.8,0-20.5l0,0c5.7-5.7,14.8-5.7,20.5,0l0,0
		C30.9,10.4,30.9,19.6,25.3,25.2z"/>
	<path class="st0" d="M4.5,4.4c5.8-5.8,15.4-5.8,21.2,0s5.8,15.4,0,21.2s-15.4,5.8-21.2,0C-1.4,19.8-1.3,10.2,4.5,4.4z M25,24.8
		c5.4-5.5,5.5-14.3,0-19.7S10.7-0.5,5.3,5s-5.4,14.3,0,19.7S19.6,30.2,25,24.8z"/>
</g>
<path class="st1" d="M13.9,20.8l0.5,0.5c0.4,0.4,1,0.4,1.4,0l5.6-5.6c0.4-0.4,0.4-1,0-1.4l-5.6-5.6c-0.4-0.4-1-0.4-1.4,0l-0.5,0.5
	c-0.4,0.4-0.4,1.1,0,1.5l3.2,3.1H9.4c-0.6,0-1,0.5-1,1v0.7c0,0.6,0.5,1,1,1h7.8l-3.2,3.1C13.5,19.8,13.5,20.4,13.9,20.8z"/>
</svg>
