<?xml version="1.0" encoding="utf-8"?>
<!-- Generator: Adobe Illustrator 24.3.0, SVG Export Plug-In . SVG Version: 6.00 Build 0)  -->
<svg version="1.1" id="Capa_1" xmlns="http://www.w3.org/2000/svg" xmlns:xlink="http://www.w3.org/1999/xlink" x="0px" y="0px"
	 viewBox="0 0 30 30" style="enable-background:new 0 0 30 30;" xml:space="preserve">
<style type="text/css">
	.st0{fill:#FF7A36;}
	.st1{fill:#FFFFFF;}
</style>
<g>
	<path class="st0" d="M4.8,4.8L4.8,4.8c5.7-5.7,14.8-5.7,20.5,0l0,0c5.7,5.7,5.7,14.8,0,20.5l0,0c-5.7,5.7-14.8,5.7-20.5,0l0,0
		C-0.8,19.6-0.8,10.4,4.8,4.8z"/>
	<path class="st0" d="M25.6,25.6c-5.8,5.8-15.4,5.8-21.2,0s-5.8-15.4,0-21.2s15.4-5.8,21.2,0S31.5,19.8,25.6,25.6z M24.8,24.8
		c5.4-5.4,5.4-14.2,0-19.7S10.6-0.4,5.1,5s-5.4,14.2,0,19.7S19.4,30.2,24.8,24.8z"/>
</g>
<path class="st1" d="M16.2,19.4L13,16.3h7.8c0.6,0,1-0.5,1-1v-0.7c0-0.6-0.5-1-1-1H13l3.2-3.1c0.4-0.4,0.4-1.1,0-1.5l-0.5-0.5
	c-0.4-0.4-1-0.4-1.4,0l-5.6,5.6c-0.4,0.4-0.4,1,0,1.4l5.6,5.6c0.4,0.4,1,0.4,1.4,0l0.5-0.5C16.6,20.4,16.6,19.8,16.2,19.4z"/>
</svg>
