<?xml version="1.0" encoding="utf-8"?>
<!-- Generator: Adobe Illustrator 24.3.0, SVG Export Plug-In . SVG Version: 6.00 Build 0)  -->
<svg version="1.1"
	 id="Capa_1" xmlns:cc="http://creativecommons.org/ns#" xmlns:dc="http://purl.org/dc/elements/1.1/" xmlns:inkscape="http://www.inkscape.org/namespaces/inkscape" xmlns:rdf="http://www.w3.org/1999/02/22-rdf-syntax-ns#" xmlns:sodipodi="http://sodipodi.sourceforge.net/DTD/sodipodi-0.dtd" xmlns:svg="http://www.w3.org/2000/svg"
	 xmlns="http://www.w3.org/2000/svg" xmlns:xlink="http://www.w3.org/1999/xlink" x="0px" y="0px" viewBox="0 0 34 34.9"
	 style="enable-background:new 0 0 34 34.9;" xml:space="preserve">
<style type="text/css">
	.st0{opacity:0.8;fill:#FF7A36;enable-background:new    ;}
	.st1{fill:#FFE07D;}
	.st2{fill:#FFD064;}
	.st3{fill:#E27D47;}
	.st4{fill:#DD544F;}
	.st5{fill:#365E7D;}
	.st6{fill:#2B4D66;}
	.st7{fill:#F6F1F1;}
	.st8{fill:#DAE4EA;}
	.st9{fill:#95D6A4;}
	.st10{fill:#78C2A4;}
	.st11{fill:#31383F;}
</style>
<circle class="st0" cx="17" cy="17.9" r="16.7"/>
<g>
	<g>
		<path class="st1" d="M24.9,12.8H9.1v10.8c0,0.4,0.3,0.7,0.7,0.7h14.5c0.4,0,0.7-0.3,0.7-0.7L24.9,12.8L24.9,12.8z"/>
		<path class="st2" d="M9.1,12.8v1.4h14.4c0.4,0,0.7,0.3,0.7,0.7v9.4h0.1c0.4,0,0.7-0.3,0.7-0.7V12.8L9.1,12.8z"/>
	</g>
	<path class="st3" d="M25.3,13.5H8.7c-0.3,0-0.5-0.2-0.5-0.5v-0.8c0-0.3,0.2-0.5,0.5-0.5h16.6c0.3,0,0.5,0.2,0.5,0.5V13
		C25.8,13.3,25.6,13.5,25.3,13.5z"/>
	<path class="st4" d="M25.3,11.7h-0.8c0.3,0,0.5,0.2,0.5,0.5V13c0,0.3-0.2,0.5-0.5,0.5h0.8c0.3,0,0.5-0.2,0.5-0.5v-0.8
		C25.8,11.9,25.6,11.7,25.3,11.7z"/>
	<g>
		<path class="st5" d="M12,23.2l-0.4,0.4l-0.6,0.6l1,1l1,1c0.2,0.2,0.4,0.2,0.5,0l0.1-0.1c0.2-0.2,0.2-0.4,0-0.5l-0.7-0.7
			c-0.1-0.1-0.1-0.2-0.1-0.3l0.1-0.3c0-0.1,0-0.2-0.1-0.3L12,23.2z"/>
		<path class="st6" d="M10.9,24.3l0.6,0.6l1.1-1.1L12,23.2l-0.4,0.4L10.9,24.3z"/>
		<path class="st3" d="M12.8,22.9l2.9-1.2l-3.9-3.9l-1.2,2.9l-0.1,0.6l1.6,1.6L12.8,22.9z"/>
		<path class="st7" d="M12.8,22.9L11,24.7c-0.2,0.2-0.4,0.2-0.6,0l-1.6-1.6c-0.2-0.2-0.2-0.4,0-0.6l1.8-1.8L12.8,22.9z"/>
		<path class="st8" d="M10.2,21.1l0.4-0.4l2.2,2.2l-0.4,0.4L10.2,21.1z"/>
		<path class="st4" d="M11.5,18.4l3.6,3.6l0.5-0.2l-3.9-3.9L11.5,18.4z"/>
		<path class="st3" d="M9.7,25l0.5-0.5L9,23.3l-0.5,0.5c-0.3,0.3-0.3,0.9,0,1.2C8.8,25.3,9.3,25.3,9.7,25L9.7,25z"/>
		<path class="st4" d="M8.6,23.6L9,23.3l1.2,1.2l-0.4,0.4L8.6,23.6z"/>
		<path class="st3" d="M10.3,22.2l-0.4,0.4c-0.1,0.1-0.4,0.1-0.5,0L9,22.2l0.9-0.9l0.4,0.4C10.5,21.8,10.5,22,10.3,22.2L10.3,22.2z"
			/>
		<path class="st4" d="M9.6,21.6L10,22c0.1,0.1,0.1,0.4,0,0.5l0.3-0.3c0.1-0.1,0.1-0.4,0-0.5L10,21.3L9.6,21.6z"/>
	</g>
	<path class="st9" d="M19,19.3H15c-0.5,0-1-0.4-1-1v-0.2c0-0.5,0.4-1,1-1H19c0.5,0,1,0.4,1,1v0.2C20,18.9,19.6,19.3,19,19.3z"/>
	<path class="st10" d="M19,17.1h-0.8c0.5,0,1,0.4,1,1v0.2c0,0.5-0.4,1-1,1H19c0.5,0,1-0.4,1-1v-0.2C20,17.6,19.6,17.1,19,17.1z"/>
	<g>
		<path class="st11" d="M15,19.6H19c0.7,0,1.2-0.6,1.2-1.2v-0.2c0-0.7-0.6-1.2-1.2-1.2H15c-0.7,0-1.2,0.6-1.2,1.2v0.2
			C13.7,19,14.3,19.6,15,19.6L15,19.6z M14.2,18.1c0-0.4,0.3-0.7,0.7-0.7H19c0.4,0,0.7,0.3,0.7,0.7v0.2c0,0.4-0.3,0.7-0.7,0.7H15
			c-0.4,0-0.7-0.3-0.7-0.7L14.2,18.1z"/>
		<path class="st11" d="M16.1,18.5h1.8c0.1,0,0.3-0.1,0.3-0.3S18.1,18,17.9,18h-1.8c-0.1,0-0.3,0.1-0.3,0.3S15.9,18.5,16.1,18.5
			L16.1,18.5z"/>
		<path class="st11" d="M15.2,16.4c0,0.1,0.1,0.3,0.3,0.3c0.1,0,0.3-0.1,0.3-0.3v-1.2c0-0.1-0.1-0.3-0.3-0.3h-2.9l0.1-0.1
			c0.1-0.1,0.1-0.3,0-0.4c-0.1-0.1-0.3-0.1-0.4,0L11.6,15c-0.1,0.1-0.1,0.1-0.1,0.2s0,0.1,0.1,0.2l0.7,0.6c0.1,0.1,0.3,0.1,0.4,0
			c0.1-0.1,0.1-0.3,0-0.4l-0.1-0.1h2.6L15.2,16.4L15.2,16.4z"/>
		<path class="st11" d="M22.4,15l-0.7-0.6c-0.1-0.1-0.3-0.1-0.4,0c-0.1,0.1-0.1,0.3,0,0.4l0.1,0.1h-2.9c-0.1,0-0.3,0.1-0.3,0.3v1.2
			c0,0.1,0.1,0.3,0.3,0.3s0.3-0.1,0.3-0.3v-0.9h2.6l-0.1,0.1c-0.1,0.1-0.1,0.3,0,0.4c0.1,0.1,0.3,0.1,0.4,0l0.7-0.6
			c0.1-0.1,0.1-0.1,0.1-0.2S22.4,15,22.4,15L22.4,15z"/>
		<path class="st11" d="M21.3,22c0.1,0.1,0.3,0.1,0.4,0l0.7-0.6c0.1-0.1,0.1-0.1,0.1-0.2s0-0.1-0.1-0.2l-0.7-0.6
			c-0.1-0.1-0.3-0.1-0.4,0c-0.1,0.1-0.1,0.3,0,0.4l0.1,0.1h-2.6v-0.9c0-0.1-0.1-0.3-0.3-0.3s-0.3,0.1-0.3,0.3v1.2
			c0,0.1,0.1,0.3,0.3,0.3h2.9l-0.1,0.1C21.2,21.7,21.2,21.9,21.3,22L21.3,22z"/>
		<path class="st11" d="M25.3,11.4H11c-0.1,0-0.3,0.1-0.3,0.3S10.8,12,11,12h14.3c0.1,0,0.2,0.1,0.2,0.2V13c0,0.1-0.1,0.2-0.2,0.2
			H8.7c-0.1,0-0.2-0.1-0.2-0.2v-0.8c0-0.1,0.1-0.2,0.2-0.2h1.2c0.1,0,0.3-0.1,0.3-0.3s-0.1-0.3-0.3-0.3H8.7c-0.4,0-0.7,0.3-0.7,0.7
			V13c0,0.4,0.3,0.7,0.7,0.7h0.2V22l-0.3,0.3c-0.3,0.3-0.3,0.7,0,1l0,0l-0.3,0.3c-0.4,0.4-0.4,1.2,0,1.6c0.2,0.2,0.5,0.3,0.8,0.3
			c0.3,0,0.6-0.1,0.8-0.3l0.3-0.3l0,0c0.3,0.3,0.7,0.3,1,0l0,0l0.5,0.5c0.1,0.1,0.3,0.1,0.4,0c0.1-0.1,0.1-0.3,0-0.4l-0.5-0.5
			l0.7-0.7l0.4,0.4l-0.1,0.3c-0.1,0.2,0,0.4,0.1,0.5l0.7,0.7c0,0,0,0.1,0,0.2L13.3,26c0,0-0.1,0-0.2,0l-0.3-0.3
			c-0.1-0.1-0.3-0.1-0.4,0c-0.1,0.1-0.1,0.3,0,0.4l0.3,0.3c0.3,0.3,0.7,0.3,0.9,0l0.1-0.1c0.3-0.3,0.3-0.7,0-0.9l-0.7-0.7l0.1-0.3
			h11.1c0.5,0,0.9-0.4,0.9-0.9v-4.3c0-0.1-0.1-0.3-0.3-0.3c-0.1,0-0.3,0.1-0.3,0.3v4.3c0,0.2-0.2,0.4-0.4,0.4H13.1
			c0-0.1,0,0-0.5-0.5l0.3-0.3l0.9-0.4l0.1,0.1c0.1,0.1,0.3,0.1,0.4,0c0.1-0.1,0.1-0.2,0-0.3l1.2-0.5l0.1,0.1c0.1,0.1,0.3,0.1,0.4,0
			c0.1-0.1,0.1-0.3,0-0.4l-0.2-0.2c-0.4-0.4-3.7-3.7-4.1-4.1c-0.1-0.1-0.3-0.1-0.4,0c-0.1,0.1-0.1,0.3,0,0.4l0.1,0.1l-0.5,1.2
			c-0.1-0.1-0.2,0-0.3,0c-0.1,0.1-0.1,0.3,0,0.4l0.1,0.1l-0.4,0.9l-0.9,0.9v-7.8h15.3v4.5c0,0.1,0.1,0.3,0.3,0.3
			c0.1,0,0.3-0.1,0.3-0.3v-4.5h0.2c0.4,0,0.7-0.3,0.7-0.7v-0.8C26.1,11.8,25.7,11.4,25.3,11.4z M10.1,22C10.1,22,10.1,22,10.1,22
			l-0.4,0.4c0,0-0.1,0-0.2,0l-0.2-0.2l0.6-0.6l0.2,0.2C10.2,21.9,10.2,22,10.1,22L10.1,22z M9.5,24.8c-0.2,0.2-0.6,0.2-0.8,0
			c-0.2-0.2-0.2-0.6,0-0.8L9,23.7l0.4,0.4l0.4,0.4L9.5,24.8z M10.6,24.5c-0.4-0.4-1.2-1.2-1.6-1.6c-0.1-0.1-0.1-0.2,0-0.2L9,22.6
			l0.2,0.2c0.3,0.3,0.7,0.3,0.9,0l0.4-0.4h0v0c0.3-0.3,0.3-0.7,0-0.9l-0.2-0.2l0.2-0.2c0.2,0.2,1.6,1.6,1.8,1.8
			c-0.6,0.6-1.3,1.3-1.6,1.6C10.7,24.6,10.6,24.6,10.6,24.5L10.6,24.5z M15.2,21.6L14,22.1l-2.6-2.6l0.5-1.2
			C12.2,18.7,14.8,21.2,15.2,21.6z M13.4,22.3l-0.6,0.3c-0.2-0.2-1.7-1.7-2-2l0.3-0.6L13.4,22.3z"/>
	</g>
</g>
</svg>
