<?xml version="1.0" encoding="utf-8"?>
<!-- Generator: Adobe Illustrator 24.3.0, SVG Export Plug-In . SVG Version: 6.00 Build 0)  -->
<svg version="1.1"
	 id="Capa_1" xmlns:cc="http://creativecommons.org/ns#" xmlns:dc="http://purl.org/dc/elements/1.1/" xmlns:inkscape="http://www.inkscape.org/namespaces/inkscape" xmlns:rdf="http://www.w3.org/1999/02/22-rdf-syntax-ns#" xmlns:sodipodi="http://sodipodi.sourceforge.net/DTD/sodipodi-0.dtd" xmlns:svg="http://www.w3.org/2000/svg"
	 xmlns="http://www.w3.org/2000/svg" xmlns:xlink="http://www.w3.org/1999/xlink" x="0px" y="0px" viewBox="0 0 34 34.9"
	 style="enable-background:new 0 0 34 34.9;" xml:space="preserve">
<style type="text/css">
	.st0{opacity:0.8;fill:#FF7A36;enable-background:new    ;}
	.st1{fill:#365E7D;}
	.st2{fill:#2B4D66;}
	.st3{fill:#D3EFFB;}
	.st4{fill:#B1E4F9;}
	.st5{fill:#F6F1F1;}
	.st6{fill:#DAE4EA;}
	.st7{fill:#DD544F;}
	.st8{fill:#E27D47;}
	.st9{fill:#31383F;}
</style>
<circle class="st0" cx="17" cy="17.9" r="16.7"/>
<g>
	<path class="st1" d="M24.4,26.9H9.2c-0.6,0-1-0.5-1-1V15.7c0-0.6,0.5-1,1-1h15.2c0.6,0,1,0.5,1,1v10.1
		C25.4,26.4,24.9,26.9,24.4,26.9z"/>
	<path class="st2" d="M24.4,14.7h-0.7c0.6,0,1,0.5,1,1v10.1c0,0.6-0.5,1-1,1h0.7c0.6,0,1-0.5,1-1V15.7
		C25.4,15.2,24.9,14.7,24.4,14.7z"/>
	<path class="st3" d="M24,16.1H10c0,0-0.1,0-0.1,0.1v9.4c0,0,0,0.1,0.1,0.1h14c0,0,0.1,0,0.1-0.1L24,16.1L24,16.1L24,16.1z"/>
	<path class="st4" d="M24,16.1h-0.8c0,0,0.1,0,0.1,0.1v9.4c0,0,0,0.1-0.1,0.1h0.7c0,0,0.1,0,0.1-0.1L24,16.1L24,16.1L24,16.1z"/>
	<path class="st5" d="M21.7,24.1c-2.1,0.7-1.6-1.2-2.9-1.7c-0.6-0.3-1-0.9-1-1.5v-1.1h-2.1v1.1c0,0.7-0.4,1.3-1,1.6
		c-1.1,0.5-1.3,1.6-2.6,1.3c-1.6-0.3-2.2,0.8-2.2,0.8v1c0,0,0,0.1,0.1,0.1h14c0,0,0.1,0,0.1-0.1v-0.8C23.6,24.2,22.9,23.7,21.7,24.1
		L21.7,24.1z"/>
	<path class="st6" d="M17.3,20.8v0.5c0,0.7,0.4,1.3,1,1.5c1.3,0.6,0.8,2.4,2.9,1.7c1.5-0.5,2.3,0.4,2.6,1H24c0,0,0.1,0,0.1-0.1v-0.8
		l0,0c-0.9-1.2-2.1-0.6-2.7-0.5c-1.1,0.2-1.3-0.4-1.6-1c-0.4-0.7-0.6-0.7-1-0.9c-0.4-0.2-0.6-0.5-0.8-0.9c-0.2-0.4-0.1-0.7-0.1-1.7
		h-2.1v0.5h1C17,20.2,17.3,20.5,17.3,20.8L17.3,20.8z"/>
	<path class="st1" d="M14.2,18l0.7-0.8h3.3l1.1,0.8l-0.9,1.4c-0.1,0.2-0.3,0.3-0.5,0.3h-2.4c-0.2,0-0.4-0.1-0.5-0.3L14.2,18z"/>
	<path class="st2" d="M18.8,17.2l-1.4,2.2c-0.1,0.2-0.3,0.3-0.5,0.3h1c0.2,0,0.4-0.1,0.5-0.3l0.9-1.4L18.8,17.2z"/>
	<g>
		<path class="st7" d="M13.1,16l-1.8,1.2l0.4,3.8l0.9-1.8l1.3-1.2l0.2-1.2L13.1,16z"/>
		<path class="st7" d="M20.4,16l1.8,1.2L21.8,21l-0.9-1.8L19.6,18l-0.2-1.2L20.4,16z"/>
	</g>
	<g>
		<path class="st5" d="M19.4,9.8l-0.7-0.4h-3.8l-0.7,0.4c-0.7,1.1-1.1,2.4-1.1,3.7V18h7.4v-4.6C20.5,12.1,20.1,10.9,19.4,9.8
			L19.4,9.8z"/>
	</g>
	<path class="st6" d="M19.4,9.8l-0.7-0.4h-0.8l0.7,0.4c0.7,1.1,1.1,2.4,1.1,3.7V18h0.8v-4.6C20.5,12.1,20.1,10.9,19.4,9.8L19.4,9.8z
		"/>
	<circle class="st3" cx="16.8" cy="13.4" r="2.2"/>
	<path class="st4" d="M16.8,11.2c-0.2,0-0.3,0-0.4,0c1,0.2,1.8,1.1,1.8,2.2s-0.8,1.9-1.8,2.2c0.1,0,0.3,0,0.4,0c1.2,0,2.2-1,2.2-2.2
		C19,12.2,18,11.2,16.8,11.2z"/>
	<path class="st8" d="M19.4,9.8c-0.4-0.6-0.8-1.1-1.3-1.5l-1.1-1c-0.1-0.1-0.2-0.1-0.3,0l-1.1,1c-0.5,0.4-1,1-1.3,1.5H19.4L19.4,9.8
		z"/>
	<path class="st7" d="M18.1,8.3l-1.1-1c-0.1-0.1-0.2-0.1-0.3,0l-0.3,0.2l0.8,0.8c0.5,0.4,1,1,1.3,1.5h0.8C19,9.2,18.6,8.7,18.1,8.3z
		"/>
	<g>
		<path class="st9" d="M9.3,21v-0.5c0-0.2-0.1-0.3-0.3-0.3s-0.3,0.1-0.3,0.3V21c0,0.2,0.1,0.3,0.3,0.3S9.3,21.2,9.3,21z"/>
		<path class="st9" d="M14.3,13.4c0,1.4,1.1,2.5,2.5,2.5s2.5-1.1,2.5-2.5s-1.1-2.5-2.5-2.5S14.3,12,14.3,13.4z M18.7,13.4
			c0,1-0.9,1.9-1.9,1.9s-1.9-0.9-1.9-1.9s0.9-1.9,1.9-1.9S18.7,12.4,18.7,13.4z"/>
		<path class="st9" d="M15.4,13.4c0,0.7,0.6,1.3,1.3,1.3s1.3-0.6,1.3-1.3s-0.6-1.3-1.3-1.3C16,12.1,15.4,12.7,15.4,13.4L15.4,13.4z
			 M17.5,13.4c0,0.4-0.3,0.7-0.7,0.7c-0.4,0-0.7-0.3-0.7-0.7s0.3-0.7,0.7-0.7C17.2,12.7,17.5,13,17.5,13.4L17.5,13.4z"/>
		<path class="st9" d="M14.7,23.8c-0.2-0.1-0.5-0.2-0.8-0.1c-0.5,0.1-0.9,0.7-0.7,1.3c0,0.2,0.2,0.3,0.4,0.2c0.2,0,0.3-0.2,0.2-0.4
			c-0.1-0.2,0.1-0.5,0.3-0.5c0.1,0,0.2,0,0.3,0c0.1,0.1,0.2,0.1,0.2,0.3c0,0.2,0.2,0.3,0.4,0.2c0.2,0,0.3-0.2,0.2-0.4
			C15.1,24.1,15,23.9,14.7,23.8L14.7,23.8z"/>
		<path class="st9" d="M18.9,23.8c-0.2-0.1-0.5,0-0.7,0.1s-0.3,0.3-0.4,0.5c0,0.2,0.1,0.3,0.2,0.4c0.2,0,0.3-0.1,0.4-0.2
			c0-0.1,0.1-0.1,0.1-0.2c0.1,0,0.1,0,0.2,0s0.1,0.1,0.2,0.1c0,0.1,0,0.1,0,0.2c0,0.2,0.1,0.4,0.3,0.4c0.1,0,0.3-0.1,0.3-0.2
			c0.1-0.2,0-0.5-0.1-0.7C19.3,24,19.1,23.8,18.9,23.8z"/>
		<path class="st9" d="M16.5,21.4c0,0.1,0,0.3,0,0.4c-0.1,0.1-0.1,0.2,0,0.3c0.1,0.1,0.2,0.2,0.3,0.2c0.1,0,0.2,0,0.2-0.1
			c0.2-0.2,0.2-0.6,0.2-0.9c0-0.2-0.2-0.3-0.4-0.2C16.6,21.1,16.5,21.2,16.5,21.4L16.5,21.4z"/>
		<path class="st9" d="M24.4,14.4h-3.6v-0.9c0-0.5-0.1-1-0.2-1.6c0-0.2-0.2-0.3-0.4-0.2c-0.2,0-0.3,0.2-0.2,0.4
			c0.1,0.5,0.2,1,0.2,1.4v4.3c-0.2,0-1.2,0-1.5,0v-0.6c0-0.2-0.1-0.3-0.3-0.3c-0.2,0-0.3,0.1-0.3,0.3v0.6h-2.7v-0.6
			c0-0.2-0.1-0.3-0.3-0.3s-0.3,0.1-0.3,0.3v0.6c-0.2,0-1.2,0-1.5,0v-4.3c0-1.2,0.3-2.4,0.9-3.4h5c0.2,0.3,0.3,0.6,0.4,0.9
			c0.1,0.2,0.2,0.2,0.4,0.2c0.2-0.1,0.2-0.2,0.2-0.4c-0.4-1-1.1-1.9-1.9-2.7l-1.1-1c-0.2-0.2-0.5-0.2-0.7,0l-1.1,1
			c-1.6,1.4-2.5,3.3-2.5,5.4v0.9H9.2c-0.7,0-1.3,0.6-1.3,1.3v2.7c0,0.2,0.1,0.3,0.3,0.3s0.3-0.1,0.3-0.3v-2.7
			C8.4,15.3,8.8,15,9.2,15h3.6v0.8H10c-0.2,0-0.4,0.2-0.4,0.4v9.4c0,0.2,0.2,0.4,0.4,0.4h14c0.2,0,0.4-0.2,0.4-0.4v-9.4
			c0-0.2-0.2-0.4-0.4-0.4h-3.2V15h3.6c0.4,0,0.7,0.3,0.7,0.7v10.1c0,0.4-0.3,0.7-0.7,0.7H9.2c-0.4,0-0.7-0.3-0.7-0.7v-6.2
			c0-0.2-0.1-0.3-0.3-0.3s-0.3,0.1-0.3,0.3v6.2c0,0.7,0.6,1.3,1.3,1.3h15.2c0.7,0,1.3-0.6,1.3-1.3V15.7C25.7,15,25.1,14.4,24.4,14.4
			L24.4,14.4z M15.7,8.5l1.1-1l1.1,1c0.3,0.3,0.7,0.6,0.9,1h-4.1C15,9.1,15.3,8.8,15.7,8.5z M20.5,18.3c0.2,0,0.3-0.1,0.3-0.3v-1.4
			l1.2,0.7l-0.3,2.6l-0.5-0.8c0,0,0-0.1-0.1-0.1L20.5,18.3L20.5,18.3z M18.8,18.3l-0.6,1c-0.1,0.1-0.1,0.1-0.3,0.1h-0.2l0,0v-0.5
			c0-0.2-0.1-0.3-0.3-0.3s-0.2,0.2-0.2,0.3v0.5h-0.8v-0.5c0-0.2-0.1-0.3-0.3-0.3c-0.2,0-0.3,0.1-0.3,0.3v0.5l0,0h-0.2
			c-0.1,0-0.2-0.1-0.3-0.1l-0.6-0.9h4.1V18.3z M13.1,18.3L13.1,18.3L12.4,19l-0.1,0.1L11.9,20l-0.3-2.6l1.2-0.7V18
			C12.8,18.2,12.9,18.3,13.1,18.3L13.1,18.3z M12.1,16.4l-1,0.6C11,17.1,11,17.2,11,17.3l0.4,3.8c0,0.3,0.4,0.4,0.6,0.1l0.8-1.8
			l1.2-1.1l0,0l0.8,1.3c0.1,0.2,0.4,0.4,0.6,0.4v0.8c0,0.6-0.3,1.1-0.8,1.3c-0.5,0.2-0.8,0.5-1.1,0.8c-0.4,0.4-0.7,0.7-1.3,0.5
			c-0.9-0.2-1.6,0-2,0.3v-7.4L12.1,16.4z M23.7,24c-0.6-0.4-1.3-0.5-2.1-0.2c-0.5,0.2-0.8,0.2-1.1,0c-0.2-0.1-0.3-0.4-0.5-0.6
			c-0.1-0.1-0.1-0.2-0.2-0.3c-0.1-0.1-0.3-0.2-0.4-0.1s-0.2,0.3-0.1,0.4s0.1,0.2,0.2,0.3c0.3,0.6,0.8,1.4,2.3,0.9
			c0.8-0.3,1.5-0.1,1.9,0.4v0.5H10.2v-0.7c0.1-0.2,0.7-0.8,1.8-0.6c0.9,0.2,1.4-0.3,1.9-0.7c0.3-0.2,0.5-0.5,0.9-0.7
			c0.7-0.3,1.2-1,1.2-1.9V20h1.5v0.8c0,0.7,0.4,1.4,1,1.7c0.1,0.1,0.3,0,0.4-0.1s0-0.3-0.1-0.4c-0.4-0.2-0.7-0.7-0.7-1.2V20
			c0.3,0,0.5-0.2,0.6-0.4l0.8-1.3l0,0l1.2,1.1l0.8,1.8c0.1,0.3,0.5,0.2,0.6-0.1l0.4-3.8c0-0.1,0-0.2-0.1-0.3l-1-0.6h2.3
			C23.7,16.4,23.7,24,23.7,24z"/>
	</g>
</g>
</svg>
