<?xml version="1.0" encoding="utf-8"?>
<!-- Generator: Adobe Illustrator 25.0.0, SVG Export Plug-In . SVG Version: 6.00 Build 0)  -->
<svg version="1.1"
	 id="Capa_1" xmlns:cc="http://creativecommons.org/ns#" xmlns:dc="http://purl.org/dc/elements/1.1/" xmlns:inkscape="http://www.inkscape.org/namespaces/inkscape" xmlns:rdf="http://www.w3.org/1999/02/22-rdf-syntax-ns#" xmlns:sodipodi="http://sodipodi.sourceforge.net/DTD/sodipodi-0.dtd" xmlns:svg="http://www.w3.org/2000/svg"
	 xmlns="http://www.w3.org/2000/svg" xmlns:xlink="http://www.w3.org/1999/xlink" x="0px" y="0px" viewBox="0 0 34 34.9"
	 style="enable-background:new 0 0 34 34.9;" xml:space="preserve">
<style type="text/css">
	.st0{opacity:0.8;fill:#FF7A36;enable-background:new    ;}
	.st1{fill:#A4CE39;}
	.st2{fill:#68C044;}
	.st3{fill:#E27D47;}
	.st4{fill:#DD544F;}
	.st5{fill:#EEF0F5;}
	.st6{fill:#DAE1EA;}
	.st7{fill:#31383F;}
	.st8{fill:#365E7D;}
	.st9{fill:#2B4D66;}
	.st10{fill:#95D6A4;}
	.st11{fill:#78C2A4;}
</style>
<circle class="st0" cx="17" cy="17.9" r="16.7"/>
<path class="st1" d="M23.7,26.6c0,1.1-3,2.1-6.8,2.1c-3.7,0-6.8-0.9-6.8-2.1c0-0.8,1.4-1.5,3.6-1.8c0.9-0.2,2-0.2,3.2-0.2
	c1.1,0,2.2,0.1,3.2,0.2C22.2,25.1,23.7,25.8,23.7,26.6L23.7,26.6z"/>
<path class="st2" d="M20.1,24.7L17.8,27c-0.2,0.2-0.5,0.3-0.8,0.3s-0.6-0.1-0.8-0.3l-2.3-2.3c0.9-0.2,2-0.2,3.2-0.2
	C18.1,24.5,19.2,24.6,20.1,24.7z"/>
<path class="st3" d="M24.6,16.4c0,3.3-2.1,6.1-5,7.2l-2.7,2.7L16.7,26l-2.5-2.5c-2.9-1.1-5-3.9-5-7.2c0-4,3.1-7.3,7-7.6
	c0.2,0,0.4,0,0.6,0C21.2,8.7,24.6,12.2,24.6,16.4L24.6,16.4z"/>
<path class="st4" d="M24.6,16.4c0,3.3-2.1,6.1-5,7.2l-2.7,2.7L16.7,26l1.6-2.5c2.9-1.1,5-3.9,5-7.2c0-4-3.1-7.3-7-7.6
	c0.2,0,0.4,0,0.6,0C21.2,8.7,24.6,12.2,24.6,16.4L24.6,16.4z"/>
<path class="st5" d="M23.3,16.4c0,3.5-2.9,6.4-6.4,6.4c-0.2,0-0.4,0-0.6,0c-3.2-0.3-5.8-3-5.8-6.4s2.5-6.1,5.8-6.4
	c0.2,0,0.4,0,0.6,0C20.5,10,23.3,12.9,23.3,16.4L23.3,16.4z"/>
<path class="st6" d="M23.3,16.4c0,3.5-2.9,6.4-6.4,6.4c-0.2,0-0.4,0-0.6,0c3.2-0.3,5.8-3,5.8-6.4s-2.5-6.1-5.8-6.4
	c0.2,0,0.4,0,0.6,0C20.5,10,23.3,12.9,23.3,16.4L23.3,16.4z"/>
<g>
	<path class="st7" d="M20.2,24.5c-0.2,0-0.3,0.1-0.3,0.2c0,0.2,0.1,0.3,0.2,0.3c2.2,0.4,3.3,1,3.3,1.5c0,0.7-2.5,1.8-6.5,1.8
		c-1.5,0-2.9-0.1-4.1-0.4c-0.2,0-0.3,0.1-0.4,0.2c0,0.2,0.1,0.3,0.2,0.4c1.2,0.3,2.7,0.4,4.2,0.4c1.8,0,3.6-0.2,4.9-0.6
		c1.4-0.4,2.2-1,2.2-1.7C24,25.6,22.6,24.9,20.2,24.5L20.2,24.5z"/>
	<path class="st7" d="M11.6,27.5c-0.7-0.3-1.1-0.6-1.1-0.9c0-0.5,1-1.1,3.3-1.5c0.2,0,0.3-0.2,0.2-0.3c0-0.2-0.2-0.3-0.3-0.2
		c-1.1,0.2-2,0.4-2.6,0.8c-0.8,0.4-1.1,0.8-1.1,1.3c0,0.7,0.8,1.2,1.5,1.5h0.1c0.1,0,0.2-0.1,0.3-0.2C11.8,27.7,11.8,27.6,11.6,27.5
		L11.6,27.5z"/>
	<path class="st7" d="M10.7,14.8c-0.2,0-0.3,0.1-0.4,0.2c-0.1,0.4-0.1,0.9-0.1,1.3c0,3.7,3,6.7,6.7,6.7s6.7-3,6.7-6.7
		s-3-6.7-6.7-6.7c-2.7,0-5.1,1.6-6.1,4c-0.1,0.2,0,0.3,0.2,0.4c0.2,0.1,0.3,0,0.4-0.2c1-2.2,3.2-3.6,5.6-3.6c3.4,0,6.1,2.7,6.1,6.1
		s-2.7,6.1-6.1,6.1s-6.1-2.7-6.1-6.1c0-0.4,0-0.8,0.1-1.2C11,15,10.9,14.8,10.7,14.8L10.7,14.8z"/>
	<path class="st7" d="M14.1,23.8l2.6,2.6c0.1,0.1,0.1,0.1,0.2,0.1s0.2,0,0.2-0.1l2.6-2.6c1.7-0.6,3.1-1.9,4-3.4
		c0.1-0.1,0-0.3-0.1-0.4s-0.3,0-0.4,0.1c-0.9,1.5-2.2,2.6-3.8,3.2c0,0-0.1,0-0.1,0.1l-2.4,2.4l-2.4-2.5l-0.1-0.1
		c-1.4-0.5-2.6-1.4-3.4-2.6c-0.9-1.2-1.3-2.7-1.3-4.2c0-4,3.3-7.3,7.4-7.3c1,0,2,0.2,3,0.6c0.2,0.1,0.3,0,0.4-0.2s0-0.3-0.2-0.4
		c-1-0.4-2.1-0.7-3.2-0.7c-4.4,0-8,3.6-8,7.9C9,18,9.5,19.6,10.4,21C11.4,22.3,12.6,23.2,14.1,23.8L14.1,23.8z"/>
	<path class="st7" d="M21.4,9.8c-0.1-0.1-0.3-0.1-0.4,0.1c-0.1,0.1-0.1,0.3,0.1,0.4c2,1.4,3.2,3.6,3.2,6.1c0,0.9-0.2,1.8-0.5,2.6
		c-0.1,0.2,0,0.3,0.2,0.4h0.1c0.1,0,0.2-0.1,0.3-0.2c0.3-0.9,0.5-1.8,0.5-2.8C24.9,13.7,23.6,11.3,21.4,9.8z"/>
</g>
<g>
	<path class="st8" d="M19.8,17.1h-6.1v-4c0-0.1,0.1-0.2,0.2-0.2h5.7c0.1,0,0.2,0.1,0.2,0.2V17.1L19.8,17.1z"/>
	<path class="st9" d="M19.6,12.9h-0.3c0.1,0,0.2,0.1,0.2,0.2v4h0.3v-4C19.8,13,19.7,12.9,19.6,12.9z"/>
	<path class="st10" d="M14.1,13.7h5.3v3.2h-5.3C14.1,16.9,14.1,13.7,14.1,13.7z"/>
	<path class="st11" d="M19.1,13.7h0.3V17h-0.3V13.7z"/>
	<path class="st8" d="M16,17.1h1.5v2.5H16V17.1z"/>
	<path class="st9" d="M16,17.1v0.2h1c0.1,0,0.2,0.1,0.2,0.2v2.1h0.3v-2.5C17.5,17.1,16,17.1,16,17.1z"/>
	<g>
		<path class="st7" d="M20,17L20,17v-3c0-0.1,0-0.1-0.1-0.1s-0.1,0-0.1,0.1v3h-0.3v-3.2c0-0.1,0-0.1-0.1-0.1h-5.3
			c-0.1,0-0.1,0-0.1,0.1V17h-0.2v-3.9c0-0.1,0.1-0.1,0.1-0.1h0.6v0.3h-0.1c-0.1,0-0.1,0-0.1,0.1s0,0.1,0.1,0.1h0.4
			c0.1,0,0.1,0,0.1-0.1s0-0.1-0.1-0.1h-0.1V13h0.9v0.3h-0.1c-0.1,0-0.1,0-0.1,0.1s0,0.1,0.1,0.1h0.4c0.1,0,0.1,0,0.1-0.1
			s0-0.1-0.1-0.1h-0.1V13h0.9v0.3h-0.2c-0.1,0-0.1,0-0.1,0.1s0,0.1,0.1,0.1h0.4c0.1,0,0.1,0,0.1-0.1s0-0.1-0.1-0.1h-0.1V13h0.9v0.3
			h-0.1c-0.1,0-0.1,0-0.1,0.1s0,0.1,0.1,0.1H18c0.1,0,0.1,0,0.1-0.1s0-0.1-0.1-0.1h-0.1V13h0.9v0.3h-0.1c-0.1,0-0.1,0-0.1,0.1
			s0,0.1,0.1,0.1h0.4c0.1,0,0.1,0,0.1-0.1s0-0.1-0.1-0.1H19V13h0.6c0.1,0,0.1,0.1,0.1,0.1v0.4c0,0.1,0,0.1,0.1,0.1s0.1,0,0.1-0.1
			v-0.4c0-0.2-0.1-0.3-0.3-0.3h-5.7c-0.2,0-0.3,0.1-0.3,0.3V17l0,0c-0.1,0-0.1,0-0.1,0.1s0,0.1,0.1,0.1h0.9v0.4c0,0.1,0,0.1,0.1,0.1
			h0.5v0.2H15c-0.1,0-0.1,0-0.1,0.1s0,0.1,0.1,0.1h1v1.4h-0.5l0,0c0-0.1,0-0.1-0.1-0.1s-0.1,0-0.1,0.1v0.1l-0.1-0.1h-0.1v0.1l0,0
			h-0.7c-0.1,0-0.1,0-0.1,0.1s0,0.1,0.1,0.1h5c0.1,0,0.1,0,0.1-0.1s0-0.1-0.1-0.1h-0.9l0,0v-0.1h-0.1l-0.1,0.1v-0.1
			c0-0.1-0.1-0.1-0.1-0.1c-0.1,0-0.1,0.1-0.1,0.1l0,0h-0.5V19c0-0.1,0-0.1-0.1-0.1s-0.1,0-0.1,0.1v0.4h-1.3v-2.3h1.3v1.5
			c0,0.1,0,0.1,0.1,0.1s0.1,0,0.1-0.1V18h1c0.1,0,0.1,0,0.1-0.1s0-0.1-0.1-0.1h-0.1v-0.2H19c0.1,0,0.1,0,0.1-0.1v-0.4L20,17
			C20.1,17.1,20.1,17.1,20,17C20.1,16.9,20,17,20,17L20,17z M15.3,17.9v-0.2h0.6v0.2H15.3z M15.9,17.5h-1.3v-0.3h1.3V17.5z
			 M18.2,17.9h-0.6v-0.2h0.6V17.9z M18.8,17.5h-1.3v-0.3h1.3V17.5z M14.2,17v-3.1h5.1V17H14.2z"/>
	</g>
</g>
</svg>
