<?xml version="1.0" encoding="utf-8"?>
<!-- Generator: Adobe Illustrator 24.3.0, SVG Export Plug-In . SVG Version: 6.00 Build 0)  -->
<svg version="1.1"
	 id="Capa_1" xmlns:cc="http://creativecommons.org/ns#" xmlns:dc="http://purl.org/dc/elements/1.1/" xmlns:inkscape="http://www.inkscape.org/namespaces/inkscape" xmlns:rdf="http://www.w3.org/1999/02/22-rdf-syntax-ns#" xmlns:sodipodi="http://sodipodi.sourceforge.net/DTD/sodipodi-0.dtd" xmlns:svg="http://www.w3.org/2000/svg"
	 xmlns="http://www.w3.org/2000/svg" xmlns:xlink="http://www.w3.org/1999/xlink" x="0px" y="0px" viewBox="0 0 34 34.9"
	 style="enable-background:new 0 0 34 34.9;" xml:space="preserve">
<style type="text/css">
	.st0{opacity:0.8;fill:#FF7A36;enable-background:new    ;}
	.st1{fill:#365E7D;}
	.st2{fill:#2B4D66;}
	.st3{fill:#95D6A4;}
	.st4{fill:#78C2A4;}
	.st5{fill:#E27D47;}
	.st6{fill:#F6F1F1;}
	.st7{fill:#DAE4EA;}
	.st8{fill:#DD544F;}
	.st9{fill:#31383F;}
</style>
<circle class="st0" cx="17" cy="17.9" r="16.7"/>
<g>
	<g>
		<path class="st1" d="M12.7,21.2h1.8v7h-1.8V21.2z"/>
		<path class="st1" d="M17.5,21.2h1.8v7h-1.8V21.2z"/>
		<g>
			<path class="st2" d="M12.7,21.2v1.4h0.6c0.2,0,0.4,0.2,0.4,0.4v5.2h0.7v-7H12.7z"/>
			<path class="st2" d="M17.5,21.2v1.4h0.6c0.2,0,0.4,0.2,0.4,0.4v5.2h0.7v-7H17.5z"/>
		</g>
	</g>
	<path class="st1" d="M20.8,22h-9.5c-0.2,0-0.4-0.2-0.4-0.4V8.8c0-0.2,0.2-0.4,0.4-0.4h9.5c0.2,0,0.4,0.2,0.4,0.4v12.9
		C21.1,21.9,21,22,20.8,22z"/>
	<path class="st2" d="M20.8,8.4h-0.6c0.2,0,0.4,0.2,0.4,0.4v12.9c0,0.2-0.2,0.4-0.4,0.4h0.6c0.2,0,0.4-0.2,0.4-0.4V8.8
		C21.1,8.6,21,8.4,20.8,8.4z"/>
	<path class="st3" d="M11.9,10.5h8.3V22h-8.3V10.5z"/>
	<path class="st4" d="M19.5,10.5h0.6V22h-0.6V10.5z"/>
	<g>
		<path class="st1" d="M19.2,16.4l-0.9,0l-1.3,0l0,2l0,2c0,0.3,0.3,0.6,0.6,0.6h0.2c0.3,0,0.6-0.3,0.6-0.6l0-1.4
			c0-0.1,0.1-0.3,0.2-0.3l0.5-0.2c0.1-0.1,0.2-0.2,0.2-0.3L19.2,16.4z"/>
		<path class="st2" d="M17,16.4l0,1.3l2.2,0l0-1.3l-0.9,0L17,16.4z"/>
		<path class="st5" d="M20.3,16.8l4.2,1.7l0-8l-4.2,1.7l-0.8,0.5l0,3.3L20.3,16.8z"/>
		<path class="st6" d="M20.3,16.8l-3.7,0c-0.3,0-0.6-0.3-0.6-0.6l0-3.3c0-0.3,0.3-0.6,0.6-0.6l3.7,0L20.3,16.8z"/>
		<path class="st7" d="M19.5,12.2h0.7v4.6h-0.7V12.2z"/>
		<path class="st8" d="M23.7,10.8l0,7.4l0.8,0.3l0-8L23.7,10.8z"/>
		<path class="st5" d="M15,15.8l1,0l0-2.5l-1,0c-0.7,0-1.3,0.6-1.3,1.3C13.7,15.2,14.3,15.8,15,15.8L15,15.8z"/>
		<path class="st5" d="M18.6,13.6l-0.8,0c-0.3,0-0.6-0.2-0.6-0.6l0-0.8l1.9,0l0,0.8C19.1,13.3,18.9,13.6,18.6,13.6z"/>
		<path class="st8" d="M18.4,12.2l0,0.8c0,0.3-0.2,0.6-0.6,0.6l0.7,0c0.3,0,0.6-0.2,0.6-0.6l0-0.8L18.4,12.2z"/>
	</g>
	<g>
		<path class="st9" d="M24.5,9.8C24.5,9.8,24.5,9.8,24.5,9.8c-0.2,0-0.3,0.1-0.3,0.3v0.2l-1.9,0.8v0c0-0.2-0.1-0.3-0.3-0.3
			c0,0,0,0,0,0c-0.2,0-0.3,0.1-0.3,0.3l0,0.3l-0.2,0.1V8.8c0-0.4-0.3-0.7-0.7-0.7h-9.5c-0.4,0-0.7,0.3-0.7,0.7v2.1
			c0,0.2,0.1,0.3,0.3,0.3s0.3-0.1,0.3-0.3V8.8c0,0,0-0.1,0.1-0.1h1.3v0.4h-0.1c-0.2,0-0.3,0.1-0.3,0.3s0.1,0.3,0.3,0.3h0.8
			c0.2,0,0.3-0.1,0.3-0.3s-0.1-0.3-0.3-0.3h-0.1V8.7h1.5v0.4h-0.1c-0.2,0-0.3,0.1-0.3,0.3s0.1,0.3,0.3,0.3h0.8
			c0.2,0,0.3-0.1,0.3-0.3s-0.1-0.3-0.3-0.3h-0.1V8.7h1.5v0.4h-0.1c-0.2,0-0.3,0.1-0.3,0.3s0.1,0.3,0.3,0.3h0.8
			c0.2,0,0.3-0.1,0.3-0.3s-0.1-0.3-0.3-0.3h-0.1V8.7h1.5v0.4h-0.1c-0.2,0-0.3,0.1-0.3,0.3s0.1,0.3,0.3,0.3h0.8
			c0.2,0,0.3-0.1,0.3-0.3s-0.1-0.3-0.3-0.3h-0.1V8.7h1.3c0,0,0.1,0,0.1,0.1v2.9l-0.4,0.2v-1.4c0-0.2-0.1-0.3-0.3-0.3h-8.3
			c-0.2,0-0.3,0.1-0.3,0.3v11.3h-0.3c0,0-0.1,0-0.1-0.1v-9.6c0-0.2-0.1-0.3-0.3-0.3s-0.3,0.1-0.3,0.3v9.6c0,0.4,0.3,0.7,0.7,0.7h1.2
			V28h-1l0,0c0.1-0.1,0-0.3-0.1-0.4c-0.1-0.1-0.3,0-0.4,0.1l-0.1,0.2l-0.4-0.4c-0.1-0.1-0.3-0.1-0.4,0c-0.1,0.1-0.1,0.3,0,0.4L10,28
			H8.5c-0.2,0-0.3,0.1-0.3,0.3s0.1,0.3,0.3,0.3h14.9c0.2,0,0.3-0.1,0.3-0.3S23.6,28,23.5,28H22l0.1-0.1c0.1-0.1,0.1-0.3,0-0.4
			c-0.1-0.1-0.3-0.1-0.4,0l-0.4,0.4l-0.1-0.2c-0.1-0.1-0.3-0.2-0.4-0.1c-0.1,0.1-0.2,0.3-0.1,0.4l0,0h-1v-1.5c0-0.2-0.1-0.3-0.3-0.3
			c-0.2,0-0.3,0.1-0.3,0.3V28h-1.2v-5.6H19v3c0,0.2,0.1,0.3,0.3,0.3c0.2,0,0.3-0.1,0.3-0.3v-3h1.2c0.4,0,0.7-0.3,0.7-0.7v-4l0.2,0.1
			l0,0.3c0,0.2,0.1,0.3,0.3,0.3h0c0.2,0,0.3-0.1,0.3-0.3v0l1.9,0.8v0.2c0,0.2,0.1,0.3,0.3,0.3h0c0.2,0,0.3-0.1,0.3-0.3l0-0.4
			c0,0,0,0,0,0c0-0.4,0-8.1,0-8.4C24.8,10,24.6,9.8,24.5,9.8L24.5,9.8z M16.6,16.5c-0.2,0-0.3-0.1-0.3-0.3c0-0.4,0-3,0-3.3
			c0-0.1,0-0.2,0.1-0.2s0.1-0.1,0.2-0.1h0h0.2l0,0.5c0,0.5,0.4,0.9,0.9,0.9l0.8,0h0c0.5,0,0.9-0.4,0.9-0.9l0-0.5l0.6,0
			c0,1.1,0,3.3,0,4L16.6,16.5z M15.7,15.5h-0.4l0-1.9l0.4,0C15.7,14.1,15.7,14.9,15.7,15.5z M14.7,15.5C14.3,15.3,14,15,14,14.5
			c0-0.4,0.3-0.8,0.7-0.9L14.7,15.5z M18.8,12.5l0,0.5c0,0.1-0.1,0.3-0.3,0.3l-0.8,0c-0.1,0-0.3-0.1-0.3-0.3l0-0.5
			C17.6,12.5,18.7,12.5,18.8,12.5L18.8,12.5z M13,28v-5.6h1.2V28H13z M14.8,28V24h0.9v0.2c0,0.2,0.1,0.3,0.3,0.3
			c0.2,0,0.3-0.1,0.3-0.3V24h0.9V28H14.8z M17.2,23.4h-0.9v-0.2c0-0.2-0.1-0.3-0.3-0.3s-0.3,0.1-0.3,0.3v0.2h-0.9v-1.1h2.4
			L17.2,23.4L17.2,23.4z M12.2,21.7v-11h7.7v1.2c-0.7,0-2.6,0-3.2,0c0,0,0,0,0,0c-0.2,0-0.5,0.1-0.7,0.3c-0.2,0.2-0.3,0.4-0.3,0.7
			V13l-0.4,0v0c0-0.2-0.1-0.3-0.3-0.3c-0.2,0-0.3,0.1-0.3,0.3V13c-0.7,0.1-1.3,0.8-1.3,1.5c0,0.8,0.6,1.4,1.3,1.5v0.1
			c0,0.2,0.1,0.3,0.3,0.3c0.2,0,0.3-0.1,0.3-0.3v0l0.4,0v0.1c0,0.5,0.4,0.9,0.9,0.9h0.1l0,1c0,0.2,0.1,0.3,0.3,0.3h0
			c0.2,0,0.3-0.1,0.3-0.3l0-1l1.6,0l0,1c0,0.1-0.1,0-0.5,0.3c-0.2,0.1-0.4,0.3-0.4,0.6l0,1.4c0,0.1-0.1,0.3-0.3,0.3l-0.2,0
			c-0.1,0-0.3-0.1-0.3-0.3l0-1c0-0.2-0.1-0.3-0.3-0.3c-0.2,0-0.3,0.1-0.3,0.3l0,1c0,0.5,0.4,0.9,0.9,0.9l0.2,0
			c0.5,0,0.9-0.4,0.9-0.9l0-1.4c0,0,0,0,0-0.1l0.5-0.2c0.2-0.1,0.4-0.3,0.4-0.6l0-1l0.3,0v4.6H12.2z M20.8,21.7
			C20.8,21.7,20.8,21.7,20.8,21.7l-0.4,0.1v-4.5l0.4,0.2V21.7z M20.6,16.6c0-0.5,0-3.7,0-4.2l0.7-0.3c0,0,0,0,0,0l0.4-0.2l0,5.1
			C21.3,16.9,20.8,16.7,20.6,16.6L20.6,16.6z M22.3,17.3l0-5.6l1.9-0.8c0,0.2,0,6.9,0,7.1L22.3,17.3z"/>
		<path class="st9" d="M27.4,14.2h-1.3c-0.2,0-0.3,0.1-0.3,0.3c0,0.2,0.1,0.3,0.3,0.3h1.3c0.2,0,0.3-0.1,0.3-0.3
			C27.7,14.4,27.5,14.2,27.4,14.2z"/>
		<path class="st9" d="M25.9,12.6l0.9-0.9c0.1-0.1,0.1-0.3,0-0.4c-0.1-0.1-0.3-0.1-0.4,0l-0.9,0.9c-0.1,0.1-0.1,0.3,0,0.4
			C25.6,12.7,25.8,12.7,25.9,12.6z"/>
		<path class="st9" d="M25.9,16.4c-0.1-0.1-0.3-0.1-0.4,0c-0.1,0.1-0.1,0.3,0,0.4l0.9,0.9c0.1,0.1,0.3,0.1,0.4,0
			c0.1-0.1,0.1-0.3,0-0.4L25.9,16.4z"/>
	</g>
</g>
</svg>
